<svg viewBox="0 0 397 377" version="1.1" xmlns="http://www.w3.org/2000/svg" desc="Created with imagetracer.js version 1.2.6" ><path fill="rgb(237,95,36)" stroke="rgb(237,95,36)" stroke-width="1" opacity="0.9921568627450981" d="M 179.5 68 L 205.5 68 L 206.5 69 L 211.5 69 L 213.5 71 L 215.5 71 Q 215.7 69.8 217.5 70 L 219.5 72 Q 222 71.5 222.5 73 L 230.5 73 Q 231.3 74.5 233 74 L 233 76 L 232.5 76 L 220.5 76 L 219.5 77 L 214.5 77 L 214 77.5 L 216.5 80 Q 219.5 79.5 220 81.5 L 217.5 84 L 214.5 84 Q 213.8 85.5 212 85 L 212 87.5 Q 210.5 88.3 211 90 Q 208.9 89.5 208 91.5 Q 207.8 93.8 209.5 94 Q 211.2 93.7 211.5 95 L 213.5 92 L 218.5 92 L 219.5 91 L 224 91 L 224 93.5 L 222.5 95 Q 220.7 95.2 220.5 94 L 214.5 94 Q 213.8 95.5 212 95 L 212 98.5 L 208.5 103 L 207 103.5 L 207.5 104 L 211 104 L 211 102 L 214.5 102 Q 216.3 102.3 216 104.5 L 214.5 106 L 211.5 106 L 210.5 107 L 208 107 L 208 105 L 203.5 105 Q 202.5 107 201.5 105 L 196.5 105 L 195.5 106 L 179.5 106 L 178.5 107 L 174.5 107 L 173.5 108 L 168.5 108 Q 168 109.5 165.5 109 Q 164.5 108.5 165.5 108 L 166.5 108 L 170.5 105 L 172.5 105 L 174 103.5 L 174 101.5 Q 175.2 101.3 175 99.5 L 173 97.5 L 173 95.5 Q 173.9 93.5 176 94 L 176 91.5 L 173 88.5 L 173 86.5 L 175.5 83 Q 177.2 83.3 177.5 82 L 179.5 82 L 182.5 79 Q 184.2 79.2 184.5 78 L 186.5 78 L 188.5 76 L 191.5 76 Q 191.7 74.8 193.5 75 L 196.5 72 L 198.5 72 Q 199.5 70 202 69.5 L 201.5 69 L 190.5 69 L 190 69 L 190 71 L 186.5 71 Q 186 72.5 183.5 72 Q 182.8 70.3 179.5 71 L 178.5 72 L 173.5 72 L 172.5 73 L 166.5 73 L 161.5 76 Q 159 75.5 158.5 77 L 155.5 77 L 152.5 80 L 150.5 80 Q 149.8 81.5 148 81 L 148 83 L 146.5 83 Q 146.3 84.3 144.5 84 L 136 92.5 Q 136.3 94.8 134.5 95 L 134 93.5 L 138 89.5 L 138 88 L 140 88 L 140 86.5 L 143.5 83 L 144.5 83 L 146.5 81 L 151.5 79 L 155.5 76 L 157.5 76 L 158.5 75 L 159.5 75 L 162.5 73 L 164.5 73 L 165.5 72 L 172.5 72 L 173.5 71 L 175.5 71 Q 175.8 69.8 177.5 70 L 179.5 68 Z " /><path fill="rgb(237,95,36)" stroke="rgb(237,95,36)" stroke-width="1" opacity="0.9921568627450981" d="M 127.5 87 Q 128.5 87.5 128 89.5 L 125 92.5 Q 125.5 94.5 124.5 95 L 123.5 92 Q 121.5 92.9 122 95 L 120.5 95 L 118 97.5 L 117 100.5 L 115 102.5 L 114 105.5 L 111 108.5 L 111 110.5 L 108.5 114 Q 107.2 113.2 109 112.5 L 111 106.5 L 114 103.5 L 115 100.5 L 120 94.5 L 120 93.5 L 123.5 90 L 125 90 L 125 88 L 126.5 88 L 127.5 87 Z " /><path fill="rgb(237,95,36)" stroke="rgb(237,95,36)" stroke-width="1" opacity="0.9921568627450981" d="M 264 94 L 266.5 94 L 269.5 96 L 271.5 96 Q 272.3 94.2 275.5 95 L 278.5 98 L 280.5 98 Q 280.7 99.2 282.5 99 L 287.5 104 L 288.5 104 L 292.5 108 L 293.5 108 L 298 112.5 L 297 115.5 L 295.5 117 Q 293.3 116.3 294 118.5 Q 293.1 120.5 291 120 L 290 123.5 L 285 129.5 L 285 130.5 L 283 132.5 L 283 133.5 L 279 137.5 L 278 140.5 L 276 142.5 L 276 144 L 272 144 L 272 142.5 L 264.5 133 L 263.5 133 L 261 130.5 L 261 129.5 L 257 125.5 L 257 123.5 L 255 120.5 L 255 119.5 Q 255.7 118.2 256.5 120 L 260 116.5 L 260 114.5 L 257 111.5 L 259 108.5 Q 257 107.5 259 106.5 Q 258.5 103.5 260.5 103 Q 262.2 103.2 262.5 102 L 264.5 102 L 265.5 101 Q 268.3 101.8 269 100.5 L 268.5 100 L 266 100 L 266 98.5 L 264 95.5 L 264 94 Z " /><path fill="rgb(237,95,36)" stroke="rgb(237,95,36)" stroke-width="1" opacity="0.9921568627450981" d="M 220.5 106 L 228.5 106 L 229.5 107 Q 230.3 105.3 231 106.5 L 229 108.5 L 229.5 109 L 234.5 109 L 235.5 108 L 241 108 L 241 110 L 239.5 110 L 235 112.5 L 237.5 114 Q 240.3 113.3 241 114.5 L 240.5 115 L 235.5 115 L 231.5 112 L 229.5 112 L 228.5 111 L 226.5 111 L 225.5 110 Q 223 110.5 222.5 109 L 219 109 Q 218.5 106.9 220.5 106 Z " /><path fill="rgb(237,95,36)" stroke="rgb(237,95,36)" stroke-width="1" opacity="0.9921568627450981" d="M 102.5 133 L 103 133.5 L 103 139.5 L 102 140.5 L 102 156.5 L 103 157.5 L 103 164.5 Q 102.5 165.5 102 164.5 Q 102.7 161.3 101 160.5 L 101 154.5 L 100 153.5 L 100 143.5 L 101 142.5 L 101 138.5 L 102 137.5 L 102 133.5 L 102.5 133 Z " /><path fill="rgb(237,95,36)" stroke="rgb(237,95,36)" stroke-width="1" opacity="0.9921568627450981" d="M 128.5 135 L 136 143.5 L 136 145 Q 138.1 144.5 139 146.5 Q 138.3 148.8 140.5 148 L 146.5 154 L 147.5 154 L 149.5 156 L 150.5 156 L 153.5 159 L 154.5 159 L 159.5 163 L 164.5 165 L 167.5 168 L 170 168 L 170 170 L 172 170 L 172 171.5 L 173.5 173 L 175.5 173 Q 175.8 174.2 177.5 174 L 179.5 176 L 181.5 176 Q 181.7 177.3 183.5 177 L 189.5 182 L 191.5 182 L 195 185.5 L 195 187.5 L 197.5 191 Q 200.8 189.9 200 192.5 Q 200.9 194.5 203 194 L 203 196 L 205.5 196 L 206.5 195 L 209.5 198 L 211.5 196 Q 214.5 195.5 215 197.5 Q 216.1 200.8 213.5 200 L 211.5 198 L 211 198.5 Q 211.5 201 210 201.5 Q 211.5 202 211 204.5 L 212.5 206 L 215.5 207 L 217 208.5 Q 217.2 210.2 216 210.5 L 219.5 213 L 223.5 213 Q 224 214.5 226.5 214 Q 227.5 212 228.5 214 L 231.5 214 L 232.5 215 L 238.5 215 L 239 215.5 L 236 219.5 L 236.5 220 L 241 220 L 241 217 L 244.5 217 L 247.5 221 Q 250.5 220.5 251 222.5 L 246 226.5 L 246 232 L 249.5 232 Q 250.3 230.5 252 231 L 252 225.5 Q 251.6 224.5 253.5 225 L 254.5 226 L 257.5 227 L 259 228.5 L 256 231.5 L 256 233.5 Q 256.8 235.8 260.5 235 L 261.5 234 L 265.5 234 L 267 235.5 L 268 239 L 269.5 239 L 283 252.5 L 283 253.5 L 286 256.5 L 286 258.5 Q 287.3 258.8 287 260.5 L 290 263.5 L 290 264.5 L 293 269.5 Q 292.3 272.8 294 273.5 L 294 277.5 L 295 278.5 L 295 281.5 L 296 282.5 Q 295.3 285.8 297 286.5 L 297 298.5 L 296 299.5 Q 296.5 302 295 302.5 L 295 306.5 L 294.5 307 L 294 306.5 L 294 302.5 L 295 301.5 L 295 292.5 Q 293.5 292 294 289.5 L 292.5 288 L 291.5 288 L 289.5 290 L 287.5 288 L 281.5 288 L 279.5 290 L 277 290 L 277 292 L 275 292 L 275 294 L 273.5 294 L 270.5 290 Q 269.5 292 268.5 290 Q 266 289.5 265.5 291 L 264 289.5 Q 265.8 288.7 264.5 288 L 261 288 L 261 286 L 259.5 286 Q 258.2 286.7 260 287.5 L 259 288.5 L 259 292.5 Q 260.8 293.3 260 296.5 L 258 299.5 L 258 302.5 L 259 303.5 L 259 308.5 Q 258.5 309.5 258 308.5 L 258 304.5 L 255 299.5 L 255 296.5 L 251 291.5 L 251 289.5 L 241.5 279 Q 239.3 279.8 240 277.5 L 229.5 269 L 228.5 269 L 222.5 264 L 219.5 263 L 217.5 261 L 216.5 261 L 214.5 259 L 213.5 259 L 210.5 256 L 209.5 256 L 205.5 253 L 204.5 253 L 201.5 250 L 199.5 250 L 198.5 249 L 195.5 248 L 192.5 245 L 190.5 245 Q 190.3 243.7 188.5 244 L 186.5 242 L 183.5 241 L 180.5 238 L 178.5 238 Q 178.3 236.8 176.5 237 L 173.5 234 L 172.5 234 L 171.5 233 L 168.5 232 L 166.5 230 L 163.5 229 L 160.5 226 L 159.5 226 L 155.5 223 L 152.5 222 L 149.5 219 L 146.5 218 L 143.5 215 L 142.5 215 L 140.5 213 L 139.5 213 L 137.5 211 L 136.5 211 L 132.5 207 L 131.5 207 L 126 202.5 Q 126.8 200.3 124.5 201 Q 123.8 199.5 122 200 L 122 198.5 L 116 192.5 L 117.5 192 L 120.5 196 Q 122.8 195.3 122 197.5 L 127 201.5 L 127 203 L 130 203 L 130 200.5 L 131 199.5 L 131 196.5 L 132.5 195 Q 134.8 195.3 135 193.5 Q 134.7 191.7 136 191.5 Q 134.5 190.8 135 189 L 132.5 189 L 129 185.5 L 129 181.5 Q 132 180.5 131 175.5 L 130 174.5 Q 130.5 172 129 171.5 L 130 170.5 Q 128 169.5 130 168.5 Q 130.8 165.3 129 164.5 L 130 163.5 L 130 160 L 132 160 L 132 157 L 135.5 157 L 140 152.5 L 139 151.5 Q 139.5 148.5 137.5 148 Q 135.7 147.7 135.5 149 L 133.5 149 Q 131.5 148.5 132 145.5 L 133 144.5 L 131 142.5 L 131 138 L 129.5 138 Q 127.1 137.1 128.5 135 Z M 224 223 L 223 225 L 221 225 L 220 224 L 216 224 Q 215 226 214 224 L 212 228 Q 213 229 214 227 L 214 229 L 213 230 L 212 230 Q 213 227 211 228 Q 209 229 211 230 Q 210 230 210 232 Q 211 234 214 233 L 218 236 L 220 236 L 222 238 L 226 238 Q 227 236 228 238 Q 228 237 231 237 L 235 233 L 236 234 L 241 234 Q 242 234 242 237 L 246 240 L 246 240 L 246 236 L 245 235 L 245 232 L 242 232 Q 243 230 241 230 L 241 226 L 241 225 Q 240 227 237 226 L 234 229 L 235 230 L 235 230 L 230 225 L 229 226 L 227 224 Q 224 225 224 223 Z " /><path fill="rgb(237,95,36)" stroke="rgb(237,95,36)" stroke-width="1" opacity="0.9921568627450981" d="M 137.5 313 L 138.5 314 L 146.5 314 L 148.5 316 L 153.5 316 L 156.5 319 Q 159 318.5 159.5 320 L 169.5 320 L 170.5 321 L 174.5 321 L 175.5 322 L 180.5 322 L 181.5 323 L 206.5 323 L 207 323.5 L 206.5 324 L 202.5 324 L 200 325.5 Q 200.8 326.8 203.5 326 L 208 328.5 Q 207 331 202.5 330 L 198 333.5 Q 199.3 333.7 199 335.5 L 194 339.5 Q 194.8 340.8 197.5 340 Q 198.3 341.5 200 341 L 200 343.5 L 201 344.5 L 198.5 346 L 196.5 346 L 194 348.5 Q 194.3 350.8 192.5 351 L 191.5 350 L 183.5 350 L 182 351.5 L 182.5 352 Q 185.5 351.5 186 353.5 L 186 355 L 182.5 355 L 181.5 354 L 176.5 354 L 173.5 356 L 170.5 356 Q 170 357.5 167.5 357 L 166.5 356 L 161 356 L 161 358 L 161.5 358 L 169.5 358 Q 170.5 358.5 169.5 359 L 161.5 359 L 156.5 356 L 152.5 356 L 151.5 355 L 148.5 355 Q 148 353.5 145.5 354 L 141.5 351 Q 141.2 352.3 139.5 352 L 138.5 351 L 136.5 351 Q 135.8 349.5 134 350 Q 134.5 347.9 132.5 347 L 127.5 347 Q 126.5 347.4 127 345.5 L 125.5 344 L 122.5 344 Q 122 342.5 119.5 343 L 114 338.5 Q 113.5 335.5 115.5 335 Q 118.8 335.8 119.5 334 Q 120.8 334.8 120 337.5 L 121.5 339 Q 124 338.5 124.5 340 Q 125.5 337.5 128 338 L 128 333 L 124.5 333 Q 122.3 332.3 123 328.5 L 124 327.5 L 124 325.5 Q 125.5 324.8 125 323 L 127.5 323 L 128.5 322 L 129.5 323 L 131.5 323 L 134.5 325 L 136 325 L 136 319.5 Q 136.4 318.5 134.5 319 L 133 317.5 L 133.5 317 Q 135.8 317.3 136 315.5 Q 135.8 313.3 137.5 313 Z " /><path fill="rgb(240,154,62)" stroke="rgb(240,154,62)" stroke-width="1" opacity="0.8666666666666667" d="M 188.5 67 L 207.5 67 L 208.5 68 L 221.5 68 L 222.5 69 Q 225 68.5 225.5 70 L 229.5 70 L 230.5 71 L 234.5 71 L 235.5 72 L 238.5 72 L 241.5 74 L 243.5 74 Q 244 75.5 246.5 75 L 253.5 79 L 255.5 79 L 257.5 81 L 266.5 85 L 271.5 89 L 274.5 90 L 276.5 92 L 277.5 92 L 279.5 94 L 280.5 94 L 289.5 102 L 290.5 102 L 300 110.5 L 300 114.5 L 291 123.5 L 290 126.5 L 288 128.5 L 288 129.5 L 281 137.5 L 279 142.5 L 274.5 147 L 270 143.5 L 269 140.5 L 260.5 132 L 259.5 132 L 255.5 128 L 254.5 128 L 249.5 124 L 246.5 123 L 244.5 121 L 243.5 121 L 236.5 117 L 234.5 117 L 229.5 114 L 226.5 114 L 225.5 113 L 222.5 113 L 221.5 112 Q 219 112.5 218.5 111 L 214.5 111 L 213.5 110 L 207.5 110 L 206.5 109 L 198.5 109 L 197.5 108 L 193.5 108 L 192.5 107 L 186.5 107 L 185.5 108 L 179.5 108 L 178.5 109 L 171.5 109 L 170.5 110 L 164.5 110 L 163.5 111 L 161.5 111 Q 161 112.5 158.5 112 L 155.5 114 L 152.5 114 L 148.5 117 L 146.5 117 L 140.5 121 L 140 120.5 L 142.5 118 L 145.5 117 L 147.5 115 L 148.5 115 L 151.5 113 L 154.5 113 L 155.5 112 L 156.5 112 L 159.5 110 L 161.5 110 L 162.5 109 L 167.5 109 L 168.5 108 L 173.5 108 L 174.5 107 L 178.5 107 L 179.5 106 L 195.5 106 L 196.5 105 L 201.5 105 Q 202.5 107 203.5 105 L 207.5 105 L 208 105 L 208 107 L 210.5 107 Q 211.3 105.3 214.5 106 L 216 104.5 Q 216.3 102.3 214.5 102 L 211.5 102 L 211 102 L 211 104 L 207.5 104 Q 206.5 103.5 207.5 103 L 208.5 103 L 211 100.5 Q 210.7 98.7 212 98.5 L 212 95.5 L 208 92.5 Q 207.8 90.3 209.5 90 Q 211.8 90.8 211 88.5 L 212 87.5 L 212 85 Q 213.8 85.5 214.5 84 L 217.5 84 L 220 81.5 Q 219.5 79.5 216.5 80 L 214 77.5 L 214.5 77 L 219.5 77 L 220.5 76 L 232.5 76 L 233 76 L 233 74 L 231.5 74 L 230.5 73 L 222.5 73 L 221.5 72 L 219.5 72 L 217.5 70 L 216.5 70 Q 216 71.5 213.5 71 L 211.5 69 L 206.5 69 L 205.5 68 L 188.5 68 Q 187.5 67.5 188.5 67 Z M 264 94 L 264 96 L 266 99 L 266 100 L 269 100 L 269 101 Q 268 102 266 101 L 265 102 L 263 102 Q 262 103 261 103 Q 259 104 259 107 Q 257 108 259 109 L 257 112 L 260 115 L 260 117 L 257 120 Q 256 118 255 120 L 255 121 L 257 124 L 257 126 L 261 130 L 261 131 L 264 133 L 265 133 L 272 143 L 272 144 L 276 144 L 276 143 L 278 141 L 279 138 L 283 134 L 283 133 L 285 131 L 285 130 L 290 124 L 291 120 Q 293 121 294 119 Q 293 116 296 117 L 297 116 L 298 113 L 294 108 L 293 108 L 289 104 L 288 104 L 283 99 Q 281 99 281 98 L 279 98 L 276 95 Q 272 94 272 96 L 270 96 L 267 94 L 264 94 Z M 221 106 Q 219 107 219 109 L 223 109 Q 223 111 226 110 L 227 111 L 229 111 L 230 112 L 232 112 L 236 115 L 241 115 L 241 115 Q 240 113 238 114 L 235 113 L 240 110 L 241 110 L 241 108 L 236 108 L 235 109 L 230 109 Q 228 108 230 108 L 229 106 L 221 106 Z " /><path fill="rgb(240,154,62)" stroke="rgb(240,154,62)" stroke-width="1" opacity="0.8666666666666667" d="M 174.5 68 L 178.5 68 L 179 68.5 L 177.5 70 Q 175.7 69.7 175.5 71 L 173.5 71 L 172.5 72 L 165.5 72 L 164.5 73 L 162.5 73 L 157.5 76 L 155.5 76 L 151.5 79 L 150.5 79 L 149.5 80 L 146.5 81 L 144.5 83 L 143.5 83 L 140 86.5 L 140 88 L 138 88 L 138 89.5 L 134 93.5 L 134 95.5 Q 132.5 96 133 98.5 L 130 103.5 L 130 111.5 L 129 112.5 L 130 113.5 L 130 123.5 L 130 124 L 131.5 124 L 134 125.5 Q 133.3 126.8 130.5 126 L 128 122.5 L 128 106.5 L 129 105.5 L 129 101.5 L 132 97.5 L 132 95.5 Q 133.5 95 133 92.5 L 136 89.5 L 136 88.5 L 146.5 78 L 147.5 78 L 151.5 75 L 153.5 75 L 156.5 73 L 158.5 73 L 159.5 72 Q 162 72.5 162.5 71 L 165.5 71 L 166.5 70 L 169.5 70 L 170.5 69 L 173.5 69 L 174.5 68 Z " /><path fill="rgb(240,154,62)" stroke="rgb(240,154,62)" stroke-width="1" opacity="0.8666666666666667" d="M 129.5 82 L 133 82 L 133 85.5 L 129 89.5 L 129 90.5 L 127 92.5 L 127 93.5 L 125 96.5 L 125 99.5 Q 123.3 100.3 124 103.5 L 122 106.5 L 122 118.5 L 125 123.5 L 125 125.5 Q 126.3 125.7 126 127.5 L 129 131.5 L 129 133.5 L 137 142.5 L 137 144 L 138.5 144 L 146.5 152 L 147.5 152 L 150.5 155 L 151.5 155 L 159.5 161 L 166.5 164 L 168.5 166 L 171.5 167 L 173.5 169 L 174.5 169 L 175.5 170 L 178.5 171 L 180.5 173 L 185.5 175 L 187.5 177 L 190.5 178 L 192.5 180 L 199.5 183 L 201.5 185 L 202.5 185 L 203.5 186 L 206.5 187 L 208.5 189 L 211.5 190 L 214.5 193 L 215.5 193 L 216.5 194 L 219.5 195 L 221.5 197 L 222.5 197 L 225.5 200 L 226.5 200 L 228.5 202 L 229.5 202 L 232.5 205 L 235.5 206 L 238.5 209 L 239.5 209 L 242.5 212 L 243.5 212 L 246.5 215 L 247.5 215 L 257.5 224 L 258.5 224 L 262.5 228 L 263.5 228 L 269 233.5 Q 268.3 235.8 270.5 235 Q 272.3 235.3 272 237.5 L 282 247.5 L 282 248.5 L 284 250.5 L 284 251.5 L 287 254.5 L 288 257.5 L 290 259.5 L 290 260.5 L 292 263.5 L 292 265.5 L 294 267.5 Q 293.5 270 295 270.5 L 295 273.5 L 296 274.5 L 296 278.5 L 297 279.5 Q 296.5 282 298 282.5 L 298 286.5 L 299 287.5 L 299 296.5 L 298 297.5 L 298 300.5 L 297 301.5 Q 297.5 304 296 304.5 L 296 307.5 L 295 308.5 L 295 312.5 Q 293.5 313 294 315.5 L 292 317.5 L 291 320.5 L 287 324.5 L 287 326.5 L 283 330.5 L 283 332 L 281.5 332 L 272.5 340 L 271.5 340 L 267.5 343 L 262.5 345 L 260.5 347 L 259.5 347 L 256.5 349 L 254.5 349 L 253.5 350 L 252.5 350 L 245.5 354 L 243.5 354 L 242.5 355 Q 240.8 354.8 241 352.5 L 242 351.5 L 242 349 L 243.5 349 L 246 346.5 L 247 343.5 L 250 340.5 L 250 338.5 L 253 335.5 L 253 333.5 Q 254.5 333 254 330.5 L 256 328.5 Q 255.5 326 257 325.5 L 257 314.5 Q 258.2 314.2 258 312.5 L 257 311.5 L 257 305.5 L 254 301.5 L 254 297.5 L 250 292.5 L 250 290.5 L 240.5 280 Q 238.3 280.3 238 278.5 Q 238.8 276.3 236.5 277 L 232.5 273 L 229.5 272 L 222.5 266 L 219.5 265 L 217.5 263 L 216.5 263 L 214.5 261 L 213.5 261 L 210.5 258 L 205.5 256 L 203.5 254 L 202.5 254 L 200.5 252 L 197.5 251 L 195.5 249 L 186.5 245 L 178.5 239 L 173.5 237 L 171.5 235 L 170.5 235 L 166.5 232 L 163.5 231 L 160.5 228 L 157.5 227 L 155.5 225 L 154.5 225 L 152.5 223 L 151.5 223 L 148.5 220 L 145.5 219 L 142.5 216 L 141.5 216 L 139.5 214 L 138.5 214 L 136.5 212 L 135.5 212 L 126.5 204 L 125 204 Q 125.5 201.9 123.5 201 L 122.5 201 L 114 192.5 L 115.5 192 L 122 198.5 L 122 200 L 126 201 Q 125.5 203.1 127.5 204 L 128.5 204 L 131.5 207 L 132.5 207 L 136.5 211 L 137.5 211 L 139.5 213 L 140.5 213 L 142.5 215 L 143.5 215 L 146.5 218 L 149.5 219 L 152.5 222 L 153.5 222 L 157.5 225 L 160.5 226 L 163.5 229 L 164.5 229 L 168.5 232 L 173.5 234 L 176.5 237 Q 178.2 236.7 178.5 238 L 180.5 238 L 183.5 241 L 186.5 242 L 188.5 244 Q 190.2 243.7 190.5 245 L 192.5 245 L 195.5 248 L 196.5 248 L 199.5 250 L 201.5 250 L 204.5 253 L 205.5 253 L 207.5 255 L 210.5 256 L 213.5 259 L 214.5 259 L 219.5 263 L 222.5 264 L 225.5 267 L 226.5 267 L 228.5 269 L 229.5 269 L 240 277.5 Q 239.3 279.8 241.5 279 L 251 289.5 L 251 291.5 L 255 296.5 L 255 299.5 L 258 304.5 L 258 308.5 L 259 309.5 L 259 315.5 Q 257.5 316 258 318.5 Q 259.3 318.8 259 320.5 L 258 321.5 L 258 328.5 L 256 330.5 L 256 331.5 L 254 334.5 L 254 336.5 L 251 339.5 L 251 341.5 L 247 345.5 L 246 349 Q 243.9 348.5 243 350.5 L 243 352 L 246.5 352 Q 247 350.5 249.5 351 L 251.5 349 L 253.5 349 L 254.5 348 L 256.5 348 Q 256.8 346.8 258.5 347 L 260.5 345 L 263.5 344 L 268.5 340 L 270.5 340 L 278.5 333 L 280 333 L 280 331.5 L 284 327.5 L 284 326 L 286 326 L 286 324.5 L 292 316.5 L 292 314.5 L 293 313.5 Q 292.5 311 294 310.5 Q 293.3 307.3 295 306.5 L 295 302.5 L 296 301.5 Q 295.5 299 297 298.5 L 297 286.5 L 296 285.5 L 296 282.5 L 295 281.5 Q 295.8 278.3 294 277.5 L 294 273.5 Q 292.3 272.8 293 269.5 L 292 268.5 L 290 263.5 L 287 260.5 Q 287.2 258.7 286 258.5 L 286 256.5 L 283 253.5 L 283 252.5 L 269.5 239 Q 267.3 239.8 268 237.5 L 265.5 234 L 261.5 234 Q 260.8 235.8 257.5 235 L 256.5 234 Q 255.7 235.7 255 234.5 Q 256.5 234 256 231.5 L 259 228.5 L 257.5 227 L 254.5 226 L 253.5 225 L 252 225 L 252 230.5 Q 252.4 231.5 250.5 231 L 249.5 232 L 246 232 L 246 226.5 L 248.5 224 Q 250.8 224.3 251 222.5 L 249.5 221 Q 246.5 221.5 246 219.5 Q 246.3 217.3 244.5 217 L 241 217 L 241 220 L 236.5 220 Q 235.2 219.2 237 218.5 L 237 217.5 L 239 215.5 L 238.5 215 L 232.5 215 L 231.5 214 Q 228.3 214.8 227.5 213 Q 227 214.5 224.5 214 L 223.5 213 L 219.5 213 L 216 210.5 Q 217.3 210.3 217 208.5 L 211 204.5 Q 211.5 202 210 201.5 L 211 200.5 Q 210.5 198.5 211.5 198 Q 212.5 200.5 215 200 L 215 197.5 L 213.5 196 L 211.5 196 L 209.5 198 L 206.5 195 L 205.5 196 L 203 196 L 203 194 L 201.5 194 Q 199.5 193.1 200 191 L 197.5 191 L 196 189.5 Q 196.2 187.7 195 187.5 L 195 185.5 L 191.5 182 L 189.5 182 L 183.5 177 Q 181.7 177.2 181.5 176 L 179.5 176 L 177.5 174 Q 175.7 174.2 175.5 173 L 173.5 173 L 172 171.5 L 172 170 L 170 170 L 170 168 L 167.5 168 L 164.5 165 L 159.5 163 L 157.5 161 L 156.5 161 L 154.5 159 L 153.5 159 L 150.5 156 L 149.5 156 L 147.5 154 L 146.5 154 L 140.5 148 L 139 148 Q 139.5 145.9 137.5 145 Q 135.3 145.8 136 143.5 L 128 134.5 L 128 133.5 L 125 129.5 Q 125.2 127.7 124 127.5 L 124 125.5 L 122 122.5 Q 122.5 120 121 119.5 L 121 104.5 L 122 103.5 L 122 101.5 L 123 100.5 L 123 98.5 L 124 97.5 L 124 95.5 Q 125.5 95 125 92.5 L 128 89.5 L 128 87.5 Q 127.2 86.2 126.5 88 L 125 88 L 125 90 L 123.5 90 L 120 93.5 L 120 94.5 L 115 100.5 L 114 103.5 L 111 106.5 Q 111.2 108.2 110 108.5 L 110 110.5 L 107 115.5 L 107 117.5 Q 105.5 118 106 120.5 L 103 125.5 L 103 132.5 L 102 133.5 L 102 137.5 L 101 138.5 L 101 142.5 L 100 143.5 L 100 153.5 L 101 154.5 L 101 160.5 L 102 161.5 Q 101.2 164.8 103 165.5 L 103 170.5 Q 104.5 171 104 173.5 L 107 178.5 L 107 180.5 Q 108.2 180.8 108 182.5 L 110 184.5 L 111 187.5 L 114 190.5 L 113.5 191 L 109 186.5 L 109 185.5 L 107 183.5 Q 107.2 181.7 106 181.5 L 106 179.5 L 103 174.5 Q 103.5 172 102 171.5 L 102 168.5 L 101 167.5 L 101 163.5 L 100 162.5 Q 100.8 159.3 99 158.5 L 99 139.5 L 100 138.5 L 100 134.5 L 101 133.5 Q 100.3 130.3 102 129.5 L 102 125.5 L 103 124.5 L 103 122.5 L 106 117.5 L 106 115.5 Q 107.5 115 107 112.5 L 110 107.5 L 110 105.5 Q 111.2 105.2 111 103.5 L 116 97.5 L 116 96.5 L 118 94.5 L 118 93.5 L 129.5 82 Z " /><path fill="rgb(240,154,62)" stroke="rgb(240,154,62)" stroke-width="1" opacity="0.8666666666666667" d="M 104.5 99 Q 107 100 106 104.5 Q 104.5 105.3 105 107 L 103 107 L 103 109.5 Q 102.5 110.5 102 109.5 L 102 106.5 L 105 103.5 L 103.5 103 L 95.5 112 Q 94.2 111.2 96 110.5 L 96 109.5 L 102 101.5 L 102 100 Q 103.8 100.5 104.5 99 Z " /><path fill="rgb(240,154,62)" stroke="rgb(240,154,62)" stroke-width="1" opacity="0.8666666666666667" d="M 223.5 223 Q 224 224.5 226.5 224 L 228.5 226 L 229.5 225 L 232.5 228 Q 233.5 226 234.5 228 L 236.5 226 Q 239.7 226.8 240.5 225 L 241 225.5 L 241 229.5 Q 242.5 230.3 242 232 L 245 232 L 245 234.5 L 246 235.5 L 246 239.5 L 245.5 240 L 242 236.5 Q 242.3 234.3 240.5 234 L 235.5 234 L 234.5 233 L 230.5 237 Q 228 236.5 227.5 238 Q 226.5 236 225.5 238 L 221.5 238 L 219.5 236 L 217.5 236 L 213.5 233 Q 210.5 233.5 210 231.5 Q 209.7 229.7 211 229.5 Q 209.2 228.8 210.5 228 Q 212.8 228.8 212 226.5 L 213.5 224 Q 214.5 226 215.5 224 L 219.5 224 L 220.5 225 L 223 225 L 223.5 223 Z " /><path fill="rgb(240,154,62)" stroke="rgb(240,154,62)" stroke-width="1" opacity="0.8666666666666667" d="M 107.5 281 L 108.5 281 L 113 285.5 L 115 290.5 L 117.5 293 L 118.5 293 L 124.5 299 L 125.5 299 L 128.5 302 L 129.5 302 L 134.5 306 L 135.5 306 L 146.5 312 L 148.5 312 L 151.5 314 Q 154 313.5 154.5 315 L 158.5 315 L 159.5 316 L 161.5 316 L 162.5 317 Q 165 316.5 165.5 318 L 169.5 318 L 170.5 319 L 177.5 319 L 178.5 320 Q 181 319.5 181.5 321 L 184.5 321 L 185.5 322 L 201.5 322 L 202.5 321 L 210.5 321 L 211.5 320 L 214.5 320 L 215.5 319 L 218.5 319 L 219.5 318 L 222.5 318 Q 223 316.5 225.5 317 L 228.5 315 L 230.5 315 L 231.5 314 L 238.5 311 L 247.5 303 L 250.5 303 Q 251.3 304.5 253 304 Q 252.5 305.8 254 306.5 L 254 319.5 L 253 320.5 L 253 324.5 L 250 329.5 Q 250.5 331.5 249.5 332 Q 248.5 331.5 249 329.5 Q 250.5 329 250 326.5 L 252 324.5 L 252 317.5 L 253 316.5 L 252 315.5 L 252 306.5 L 249.5 304 Q 246.5 303.5 246 305.5 Q 246.8 307.8 244.5 307 L 240.5 311 L 237.5 312 L 234.5 315 L 231.5 315 L 227.5 318 Q 225 317.5 224.5 319 L 221.5 319 L 220.5 320 L 216.5 320 L 213.5 322 L 208.5 322 L 207.5 323 L 181.5 323 L 180.5 322 L 175.5 322 L 174.5 321 L 170.5 321 L 169.5 320 L 159.5 320 Q 159 318.5 156.5 319 L 153.5 316 L 148.5 316 L 146.5 314 L 138.5 314 L 137.5 313 L 134.5 317 L 133 317.5 Q 133.9 319.5 136 319 L 136 324.5 Q 136.4 325.5 134.5 325 L 133.5 324 Q 131.7 324.2 131.5 323 L 129.5 323 L 128.5 322 L 127.5 323 L 125 323 Q 125.5 324.8 124 325.5 L 124 327.5 L 123 328.5 L 123 331.5 L 124.5 333 L 128 333 L 129 329 L 131.5 329 L 136.5 326 L 137.5 327 L 141.5 327 L 143 328.5 Q 144.1 331.8 141.5 331 L 140.5 332 L 129.5 332 L 128 333.5 L 128 338 L 126.5 338 L 124.5 340 L 123.5 339 Q 120.5 339.5 120 337.5 Q 120.8 334.8 119.5 334 Q 118.8 335.8 115.5 335 L 114 336.5 Q 113.5 339.5 115.5 340 L 116.5 340 L 119.5 343 Q 122 342.5 122.5 344 L 125.5 344 L 127 345.5 Q 126.5 347.4 127.5 347 L 132.5 347 Q 134.5 347.9 134 350 L 135.5 350 L 136.5 351 L 138.5 351 Q 138.8 352.3 140.5 352 Q 141.5 350 142.5 352 L 143.5 352 L 145.5 354 Q 148 353.5 148.5 355 L 151.5 355 L 152.5 356 L 156.5 356 L 161 358.5 L 159.5 359 L 158.5 358 Q 155.3 358.8 154.5 357 L 150.5 357 Q 149.8 355.3 146.5 356 L 145.5 355 L 143.5 355 L 142.5 354 Q 140.7 354.2 140.5 353 L 138.5 353 L 137.5 352 L 134.5 352 L 127.5 348 L 125.5 348 L 124.5 347 L 113.5 342 L 111.5 340 L 110.5 340 L 108.5 338 L 107.5 338 L 105.5 336 L 104.5 336 L 102.5 334 L 101.5 334 L 90.5 324 L 89.5 324 L 84 318.5 Q 84.2 316.7 83 316.5 L 83 314.5 L 86 310.5 L 86 309.5 L 94 300.5 L 94 299.5 L 96 297.5 L 96 296.5 L 102 290.5 L 103 287.5 L 105 285.5 L 106 282.5 L 107.5 281 Z " /><path fill="rgb(240,154,62)" stroke="rgb(240,154,62)" stroke-width="1" opacity="0.8666666666666667" d="M 239.5 344 L 240 344.5 L 236.5 348 L 233.5 349 L 230.5 352 Q 228.7 351.7 228.5 353 L 226.5 353 L 223.5 355 L 221.5 355 L 220.5 356 Q 218 355.5 217.5 357 L 214.5 357 L 213.5 358 Q 211 357.5 210.5 359 L 205.5 359 Q 204.5 358.5 205.5 358 L 210.5 358 L 213.5 356 L 217.5 356 L 218.5 355 L 220.5 355 L 223.5 353 L 225.5 353 Q 226 351.5 228.5 352 L 231.5 349 L 236.5 347 L 239.5 344 Z " /><path fill="rgb(0,0,0)" stroke="rgb(0,0,0)" stroke-width="1" opacity="0" d="M 0 0 L 0.5 0 L 396.5 0 L 397 0 L 397 0.5 L 397 376.5 L 397 377 L 396.5 377 L 0.5 377 L 0 377 L 0 376.5 L 0 0.5 L 0 0 Z M 189 67 L 188 68 L 175 68 Q 174 70 171 69 L 170 70 L 167 70 L 166 71 L 163 71 Q 162 73 160 72 L 159 73 L 157 73 L 154 75 L 152 75 L 150 77 L 147 78 L 136 89 L 136 90 L 133 93 Q 134 95 132 96 L 132 98 L 129 102 L 129 106 L 128 107 L 128 123 L 131 126 L 134 126 Q 134 125 136 125 L 140 121 L 143 120 L 147 117 L 149 117 L 153 114 L 156 114 L 159 112 Q 161 113 162 111 L 164 111 L 165 110 L 171 110 L 172 109 L 179 109 L 180 108 L 186 108 L 187 107 L 193 107 L 194 108 L 198 108 L 199 109 L 207 109 L 208 110 L 214 110 L 215 111 L 219 111 Q 219 113 222 112 L 223 113 L 226 113 L 227 114 L 230 114 L 235 117 L 237 117 L 244 121 L 245 121 L 247 123 L 250 124 L 255 128 L 256 128 L 260 132 L 261 132 L 269 141 L 270 144 L 275 147 L 279 143 L 281 138 L 288 130 L 288 129 L 290 127 L 291 124 L 300 115 L 300 111 L 291 102 L 290 102 L 281 94 L 280 94 L 278 92 L 277 92 L 275 90 L 272 89 L 267 85 L 258 81 L 256 79 L 254 79 L 247 75 Q 244 76 244 74 L 242 74 L 239 72 L 236 72 L 235 71 L 231 71 L 230 70 L 226 70 Q 225 69 223 69 L 222 68 L 209 68 L 208 67 L 189 67 Z M 130 82 L 118 94 L 118 95 L 116 97 L 116 98 L 111 104 Q 111 105 110 106 L 110 108 L 107 113 Q 108 115 106 116 L 106 118 L 103 123 L 103 125 L 102 126 L 102 130 Q 100 130 101 134 L 100 135 L 100 139 L 99 140 L 99 159 Q 101 159 100 163 L 101 164 L 101 168 Q 103 168 102 172 L 103 173 L 103 175 L 105 178 L 105 179 L 106 180 L 106 182 Q 107 182 107 184 L 109 186 L 109 187 L 114 192 L 114 193 L 123 201 L 124 201 Q 126 202 125 204 L 127 204 L 136 212 L 137 212 L 139 214 L 140 214 L 142 216 L 143 216 L 146 219 L 149 220 L 152 223 L 153 223 L 155 225 L 156 225 L 158 227 L 161 228 L 164 231 L 167 232 L 171 235 L 172 235 L 174 237 L 179 239 L 187 245 L 196 249 L 198 251 L 201 252 L 203 254 L 204 254 L 206 256 L 211 258 L 214 261 L 215 261 L 217 263 L 218 263 L 220 265 L 223 266 L 230 272 L 233 273 L 237 277 Q 239 276 238 279 Q 238 280 241 280 L 250 291 L 250 293 L 254 298 L 254 302 L 257 306 L 257 312 L 258 313 Q 258 314 257 315 L 257 326 Q 256 326 256 329 L 254 331 Q 255 333 253 334 L 253 336 L 250 339 L 250 341 L 247 344 L 246 347 L 244 349 L 242 349 L 242 352 L 241 353 Q 241 355 243 355 L 244 354 L 246 354 L 253 350 L 254 350 L 255 349 L 257 349 L 260 347 L 261 347 L 263 345 L 268 343 L 272 340 L 273 340 L 282 332 L 283 332 L 283 331 L 287 327 L 287 325 L 291 321 L 292 318 L 294 316 Q 294 313 295 313 L 295 309 L 296 308 L 296 305 Q 298 304 297 302 L 298 301 L 298 298 L 299 297 L 299 288 L 298 287 L 298 283 Q 297 282 297 280 L 296 279 L 296 275 L 295 274 L 295 271 Q 294 270 294 268 L 292 266 L 292 264 L 290 261 L 290 260 L 288 258 L 287 255 L 284 252 L 284 251 L 282 249 L 282 248 L 272 238 Q 272 235 271 235 Q 268 236 269 234 L 264 228 L 263 228 L 259 224 L 258 224 L 248 215 L 247 215 L 244 212 L 243 212 L 240 209 L 239 209 L 236 206 L 233 205 L 230 202 L 229 202 L 227 200 L 226 200 L 223 197 L 222 197 L 220 195 L 217 194 L 216 193 L 215 193 L 212 190 L 209 189 L 207 187 L 204 186 L 203 185 L 202 185 L 200 183 L 193 180 L 191 178 L 188 177 L 186 175 L 181 173 L 179 171 L 176 170 L 175 169 L 174 169 L 172 167 L 169 166 L 167 164 L 160 161 L 152 155 L 151 155 L 148 152 L 147 152 L 139 144 L 137 144 L 137 143 L 129 134 L 129 132 L 126 128 Q 126 126 125 126 L 125 124 L 122 119 L 122 107 L 124 104 Q 123 100 125 100 L 125 97 L 127 94 L 127 93 L 129 91 L 129 90 L 133 86 L 133 82 L 130 82 Z M 105 99 Q 104 101 102 100 L 102 102 L 96 110 L 90 123 L 89 124 L 89 125 L 88 126 L 88 127 L 87 128 L 87 132 Q 86 132 86 135 L 85 136 L 85 138 L 84 139 L 84 145 L 83 146 L 83 173 L 84 174 L 84 181 Q 86 181 85 185 L 86 186 L 86 189 L 87 190 L 87 194 Q 89 194 88 198 L 91 203 Q 90 206 92 207 L 92 221 L 93 222 L 93 228 L 94 229 L 94 234 L 95 235 L 95 240 L 96 241 L 96 243 Q 97 243 97 245 L 98 246 Q 98 248 99 249 L 99 251 L 100 252 L 100 254 L 101 255 L 106 266 L 118 280 Q 117 282 120 281 Q 121 281 121 284 Q 121 285 124 285 L 130 291 L 131 291 L 133 293 L 134 293 L 136 295 L 137 295 L 139 297 L 140 297 L 142 299 L 155 305 L 156 306 Q 159 305 160 307 L 163 307 Q 163 309 166 308 L 167 309 L 169 309 L 170 310 L 175 310 L 176 311 L 181 311 Q 181 313 185 312 L 186 313 L 200 313 L 201 312 L 207 312 L 208 311 L 214 311 L 215 310 L 219 310 L 222 308 L 224 308 L 225 307 L 228 307 L 243 299 L 244 299 Q 244 297 245 297 L 244 294 L 242 292 L 242 291 Q 242 289 240 289 L 232 281 L 229 280 L 226 277 L 225 277 L 223 275 L 222 275 L 220 273 L 219 273 L 216 270 L 215 270 L 213 268 L 212 268 L 210 266 L 205 264 L 201 261 L 200 261 L 197 258 L 195 258 L 192 255 L 187 253 L 183 250 L 182 250 L 177 246 L 170 243 L 165 239 L 164 239 L 161 236 L 158 235 L 150 229 L 147 228 L 139 222 L 138 222 L 135 219 L 134 219 L 127 212 L 126 212 L 120 206 L 119 206 L 110 198 L 110 197 L 107 194 L 107 193 L 105 191 L 105 190 L 103 188 L 101 183 L 99 181 Q 99 179 98 179 L 98 177 L 97 176 L 97 174 L 95 171 L 95 166 L 94 165 L 94 161 L 93 160 L 93 156 L 92 155 L 92 145 L 93 144 L 93 140 Q 95 139 94 136 L 95 135 L 95 128 L 96 127 L 96 125 Q 97 124 97 123 L 98 122 Q 98 119 99 119 L 99 117 L 102 113 Q 102 110 103 110 L 103 107 L 105 107 Q 105 105 106 105 Q 107 100 105 99 Z M 189 116 L 188 117 L 179 117 L 178 118 L 173 118 Q 172 120 169 119 L 168 120 L 165 120 L 164 121 L 160 121 Q 159 123 157 122 L 156 123 L 154 123 L 153 124 L 151 124 L 148 126 L 147 126 L 145 128 L 143 128 Q 142 129 141 129 L 138 132 L 137 135 L 143 140 L 144 140 L 148 144 L 149 144 L 157 151 L 162 153 L 164 155 L 167 156 L 169 158 L 180 163 L 183 166 L 188 168 L 190 170 L 192 170 L 194 172 L 199 174 L 204 178 L 207 179 L 209 181 L 212 182 L 213 183 L 214 183 L 216 185 L 219 186 L 227 192 L 230 193 L 233 196 L 236 197 L 241 201 L 242 201 L 246 205 L 247 205 L 250 208 L 251 208 L 254 211 L 255 211 L 264 220 L 265 220 L 272 227 Q 271 229 274 228 Q 275 228 275 231 L 282 238 L 282 239 L 289 246 L 289 247 L 292 251 L 292 252 L 294 254 L 297 261 L 299 263 L 299 266 Q 301 266 300 269 L 302 272 L 302 274 L 303 275 L 303 285 L 304 286 L 304 299 L 303 300 L 303 308 L 302 309 L 302 311 Q 301 311 301 313 L 299 315 L 299 317 Q 299 318 297 318 L 295 320 L 295 322 Q 294 322 294 324 L 291 327 L 291 329 Q 290 329 290 331 L 294 331 L 296 329 Q 295 326 298 327 L 306 317 L 307 314 L 310 310 Q 310 307 311 307 L 311 305 L 313 302 L 313 300 L 314 299 L 314 294 L 315 293 L 315 289 L 316 288 L 316 275 L 315 274 L 315 268 L 314 267 L 314 262 L 313 261 L 313 259 Q 312 258 312 257 L 311 256 L 311 253 Q 310 252 310 250 L 308 247 L 308 245 L 301 232 L 301 231 L 299 229 L 298 226 L 295 223 L 295 222 L 292 219 L 292 206 L 291 205 L 291 195 Q 290 194 290 192 L 289 191 L 289 189 L 288 188 L 288 185 Q 287 184 287 182 L 285 179 L 285 177 L 282 172 L 282 171 L 280 169 L 279 166 L 278 165 L 278 164 L 274 159 L 274 158 L 268 152 L 268 151 L 259 141 L 258 141 L 254 137 L 253 137 L 249 133 L 248 133 L 246 131 L 243 130 L 241 128 L 236 126 L 235 125 L 233 125 L 228 122 L 226 122 L 225 121 L 222 121 Q 221 120 219 120 L 218 119 L 216 119 L 215 118 L 212 118 L 211 117 L 196 117 L 195 116 L 189 116 Z M 108 281 L 106 283 L 105 286 L 103 288 L 102 291 L 96 297 L 96 298 L 94 300 L 94 301 L 86 310 L 86 311 L 83 315 L 83 317 Q 84 317 84 319 L 90 324 L 91 324 L 102 334 L 103 334 L 105 336 L 106 336 L 108 338 L 109 338 L 111 340 L 112 340 L 114 342 L 125 347 L 126 348 L 128 348 L 135 352 L 138 352 L 139 353 L 141 353 Q 141 354 143 354 L 144 355 Q 146 355 147 356 L 150 356 L 151 357 L 155 357 Q 155 359 159 358 L 160 359 L 166 359 L 167 360 L 179 360 L 180 361 L 185 361 L 186 360 L 203 360 L 204 359 L 211 359 Q 211 358 214 358 L 215 357 L 218 357 Q 218 356 221 356 L 222 355 L 224 355 L 227 353 L 229 353 Q 229 352 231 352 L 234 349 L 237 348 L 241 344 L 242 344 L 242 343 L 246 339 L 246 338 L 248 336 L 249 333 L 250 332 L 250 330 L 253 325 L 253 321 L 254 320 L 254 307 Q 253 306 253 304 Q 251 305 251 303 L 248 303 L 239 311 L 232 314 L 231 315 L 229 315 L 226 317 Q 223 317 223 318 L 220 318 L 219 319 L 216 319 L 215 320 L 212 320 L 211 321 L 203 321 L 202 322 L 186 322 L 185 321 L 182 321 Q 181 320 179 320 L 178 319 L 171 319 L 170 318 L 166 318 Q 165 317 163 317 L 162 316 L 160 316 L 159 315 L 155 315 Q 154 314 152 314 L 149 312 L 147 312 L 136 306 L 135 306 L 130 302 L 129 302 L 126 299 L 125 299 L 119 293 L 118 293 L 115 291 L 113 286 L 109 281 L 108 281 Z " /><path fill="rgb(27,108,164)" stroke="rgb(27,108,164)" stroke-width="1" opacity="0.9490196078431372" d="M 103.5 103 L 105 103.5 L 102 106.5 L 102 110.5 L 99 114.5 Q 101 115.5 99 116.5 Q 99.2 118.2 98 118.5 L 98 120.5 L 95 125.5 L 95 130.5 L 94 131.5 L 94 136.5 L 93 137.5 L 93 143.5 L 92 144.5 L 92 154.5 L 93 155.5 L 93 160.5 L 94 161.5 L 94 165.5 L 95 166.5 L 95 170.5 L 97 173.5 L 97 175.5 L 98 176.5 L 98 178.5 Q 99.2 178.8 99 180.5 L 101 182.5 L 103 187.5 L 105 189.5 L 105 190.5 L 107 192.5 L 107 193.5 L 110 196.5 L 110 197.5 L 118.5 206 L 120 206 L 120 208 L 121.5 208 L 133.5 219 L 134.5 219 L 137.5 222 L 138.5 222 L 146.5 228 L 149.5 229 L 157.5 235 L 160.5 236 L 163.5 239 L 164.5 239 L 169.5 243 L 174.5 245 L 176.5 247 L 179.5 248 L 181.5 250 L 184.5 251 L 186.5 253 L 191.5 255 L 194.5 258 L 196.5 258 L 199.5 261 L 200.5 261 L 204.5 264 L 209.5 266 L 211.5 268 L 212.5 268 L 214.5 270 L 215.5 270 L 218.5 273 L 219.5 273 L 221.5 275 L 222.5 275 L 224.5 277 L 225.5 277 L 228.5 280 L 232 281 Q 231.5 283.1 233.5 284 L 234.5 284 L 244 293.5 L 245 296.5 Q 243.5 297.3 244 299 L 242.5 299 L 235.5 303 L 233.5 303 L 229.5 306 L 227.5 306 L 226.5 307 L 224.5 307 L 223.5 308 L 221.5 308 L 220.5 309 Q 218 308.5 217.5 310 L 214.5 310 L 213.5 311 L 207.5 311 L 206.5 312 L 200.5 312 L 199.5 313 L 185.5 313 L 184.5 312 Q 181.2 312.8 180.5 311 L 175.5 311 L 174.5 310 L 169.5 310 L 168.5 309 L 166.5 309 L 165.5 308 Q 163 308.5 162.5 307 L 159.5 307 Q 158.8 305.3 155.5 306 L 154.5 305 L 141.5 299 L 139.5 297 L 138.5 297 L 136.5 295 L 135.5 295 L 133.5 293 L 132.5 293 L 130.5 291 L 129.5 291 L 123.5 285 Q 121.3 285.3 121 283.5 Q 121.3 281.3 119.5 281 Q 117.3 281.8 118 279.5 L 106 265.5 L 106 263.5 L 104 261.5 L 101 254.5 L 100 253.5 L 100 251.5 L 99 250.5 L 99 248.5 Q 97.5 248 98 245.5 L 97 244.5 Q 97.2 242.7 96 242.5 L 96 240.5 L 95 239.5 L 95 234.5 L 94 233.5 L 94 228.5 L 93 227.5 L 93 221.5 L 92 220.5 L 92 206.5 Q 90.3 205.8 91 202.5 L 88 197.5 L 88 193.5 L 87 192.5 L 87 189.5 L 86 188.5 L 86 185.5 L 85 184.5 Q 85.8 181.2 84 180.5 L 84 172.5 L 83 171.5 L 83 148.5 L 84 147.5 L 84 138.5 L 86 135.5 L 86 133.5 L 87 132.5 L 87 129.5 Q 88.5 129 88 126.5 L 91 122.5 L 91 119.5 Q 94.7 117.7 95 112.5 L 103.5 103 Z " /><path fill="rgb(27,108,164)" stroke="rgb(27,108,164)" stroke-width="1" opacity="0.9490196078431372" d="M 188.5 116 L 193.5 116 L 194.5 117 L 208.5 117 L 209.5 118 Q 210.5 116 211.5 118 L 214.5 118 L 215.5 119 L 217.5 119 L 220.5 121 L 223.5 121 Q 224.3 122.8 227.5 122 L 231.5 125 L 234.5 125 Q 234.8 126.3 236.5 126 L 238.5 128 L 239.5 128 L 240.5 129 L 243.5 130 L 245.5 132 L 248.5 133 L 252.5 137 L 253.5 137 L 257.5 141 L 258.5 141 L 267 149.5 L 267 150.5 L 276 160.5 L 277 163.5 L 280 167.5 L 280 170 L 282 170 L 282 171.5 L 283 172.5 L 283 174.5 Q 284.5 175 284 177.5 L 287 181.5 Q 286.3 184.8 288 185.5 L 288 189.5 L 291 194.5 L 291 206.5 L 292 207.5 Q 290.8 207.8 291 209.5 L 292 210.5 L 292 218.5 L 298 225.5 Q 297.7 227.2 299 227.5 L 299 229.5 L 302 232.5 Q 301.7 234.2 303 234.5 L 303 237.5 L 306 240.5 L 306 241.5 L 308 244.5 L 308 246.5 L 310 249.5 L 310 252.5 L 311 253.5 L 311 255.5 L 312 256.5 Q 311.7 258.2 313 258.5 L 313 260.5 L 314 261.5 L 314 270.5 L 315 271.5 Q 314.5 274 316 274.5 L 316 280.5 Q 314 281.5 316 282.5 L 316 287.5 L 315 288.5 L 315 292.5 L 314 293.5 L 314 297.5 Q 312.3 298.3 313 301.5 L 311 303.5 L 311 305.5 Q 309.5 306 310 308.5 L 308 310.5 L 306 315.5 L 303 318.5 L 302 321.5 L 297.5 326 Q 295.3 325.8 295 327.5 L 295 329 L 292 329 L 292 327.5 L 295 324.5 L 295 321.5 L 298 318.5 L 298 317.5 L 303 308.5 L 303 300.5 L 304 299.5 L 304 285.5 L 303 284.5 L 303 274.5 L 302 273.5 L 302 271.5 L 300 268.5 Q 300.5 266 299 265.5 L 299 262.5 L 297 260.5 L 294 253.5 L 292 251.5 L 292 250.5 L 289 246.5 L 289 245.5 L 282 238.5 L 282 237.5 L 275 230.5 Q 275.3 228.3 273.5 228 Q 271.3 228.8 272 226.5 L 264.5 220 L 263.5 220 L 254.5 211 L 253.5 211 L 250.5 208 L 249.5 208 L 246.5 205 L 245.5 205 L 241.5 201 L 240.5 201 L 235.5 197 L 232.5 196 L 229.5 193 L 226.5 192 L 218.5 186 L 217.5 186 L 213.5 183 L 208.5 181 L 205.5 178 L 203.5 178 L 198.5 174 L 197.5 174 L 196.5 173 L 193.5 172 L 191.5 170 L 189.5 170 L 187.5 168 L 182.5 166 L 179.5 163 L 174.5 161 L 172.5 159 L 170.5 159 Q 170.3 157.8 168.5 158 L 166.5 156 L 163.5 155 L 158.5 151 L 156.5 151 L 148.5 144 L 147.5 144 L 143.5 140 L 142.5 140 L 138 135.5 L 138 133.5 Q 139.2 133.3 139 131.5 L 141.5 129 L 143.5 129 L 147.5 126 Q 149.2 126.2 149.5 125 L 151.5 125 L 152.5 124 L 154.5 124 L 156.5 122 Q 159 122.5 159.5 121 L 163.5 121 L 164.5 120 L 167.5 120 L 168.5 119 Q 171.8 119.8 172.5 118 L 177.5 118 L 178.5 117 L 187.5 117 L 188.5 116 Z " /><path fill="rgb(218,32,32)" stroke="rgb(218,32,32)" stroke-width="1" opacity="0.996078431372549" d="M 190 69 L 190.5 69 L 201.5 69 L 202 69.5 Q 199.5 70 198.5 72 L 196.5 72 L 193.5 75 Q 191.7 74.7 191.5 76 L 188.5 76 L 186.5 78 L 184.5 78 Q 184.3 79.3 182.5 79 L 179.5 82 L 177.5 82 L 174 84.5 Q 174.2 86.2 173 86.5 L 173 88.5 L 176 91.5 L 176 94 Q 173.9 93.5 173 95.5 L 173 97.5 L 175 99.5 L 175 100.5 Q 173.5 101 174 103.5 L 172.5 105 L 170.5 105 L 164.5 109 L 158.5 109 Q 157.8 110.5 156 110 L 156 112 L 154.5 112 L 153.5 113 L 149.5 113 Q 149.2 114.3 147.5 114 L 145.5 116 L 142.5 117 L 134.5 124 L 132.5 124 L 130 120.5 L 130 107.5 L 131 106.5 L 131 103.5 L 133 100.5 L 133 98.5 Q 134.5 98 134 95.5 L 136 93.5 L 136 92.5 L 144.5 84 L 148 83 L 148 81 L 149.5 81 Q 150 79.5 152.5 80 L 155.5 77 L 158.5 77 Q 159 75.5 161.5 76 L 166.5 73 L 172.5 73 L 173.5 72 L 178.5 72 Q 179.3 70.3 182.5 71 Q 183 72.5 185.5 72 L 186.5 71 L 190 71 L 190 69 Z " /><path fill="rgb(218,32,32)" stroke="rgb(218,32,32)" stroke-width="1" opacity="0.996078431372549" d="M 123.5 92 Q 124.8 92.8 124 95.5 L 120 101.5 L 120 117.5 L 121 118.5 L 121 124.5 L 123 126.5 Q 122.7 128.2 124 128.5 L 124 130.5 L 128 134.5 Q 127.5 137.5 129.5 138 L 131 138 L 131 142.5 L 133 144.5 L 132 145.5 Q 131.5 148.5 133.5 149 L 135.5 149 Q 135.7 147.8 137.5 148 L 139 149.5 Q 138.5 152 140 152.5 L 135.5 157 L 132 157 L 132 160 L 130 160 L 130 163.5 Q 128 164.5 130 165.5 Q 130.8 168.8 129 169.5 L 130 170.5 Q 128 171.5 130 172.5 Q 129.5 175 131 175.5 L 131 179.5 Q 128 180.5 129 185.5 L 132.5 189 L 135 189 Q 134.5 190.8 136 191.5 L 133.5 195 Q 131.3 194.8 131 196.5 L 131 199.5 L 130 200.5 L 130 203 L 127 203 L 127 201.5 L 122 197.5 Q 122.8 195.3 120.5 196 L 117.5 192 Q 114.2 193.1 115 190.5 Q 113.5 189.8 114 188 L 112 188 L 112 186.5 L 111 185.5 L 110 182.5 L 107 179.5 L 107 175.5 Q 105.5 175 106 172.5 L 104 170.5 L 104 166.5 L 103 165.5 L 103 157.5 L 102 156.5 L 102 140.5 L 103 139.5 L 103 132.5 L 104 131.5 L 104 125.5 L 106 123.5 L 106 120.5 L 107 119.5 L 107 117.5 Q 108.5 117 108 114.5 L 110 112.5 Q 109.7 110.7 111 110.5 L 111 108.5 L 114 105.5 L 114 104.5 L 117 100.5 L 118 97.5 L 120.5 95 Q 122.8 95.8 122 93.5 L 123.5 92 Z " /><path fill="rgb(218,32,32)" stroke="rgb(218,32,32)" stroke-width="1" opacity="0.996078431372549" d="M 259.5 286 L 261 286 L 261 288 L 264.5 288 Q 265.7 288.7 264 289.5 L 265.5 291 Q 266 289.5 268.5 290 Q 269.5 292 270.5 290 L 272 291.5 Q 271.8 293.8 273.5 294 L 275 294 L 275 292 L 277 292 L 277 290 L 279.5 290 L 281.5 288 L 287.5 288 L 289.5 290 L 291.5 288 Q 293.8 287.8 294 289.5 Q 293.5 292 295 292.5 L 295 301.5 L 294 302.5 L 294 308.5 Q 292.5 309 293 311.5 L 291 313.5 L 291 316.5 Q 289.7 316.7 290 318.5 L 287 321.5 L 286 324.5 L 280 330.5 Q 280.3 332.8 278.5 333 L 277.5 333 L 270.5 339 L 269.5 339 L 266.5 341 L 265 341 Q 265.5 343.1 263.5 344 L 260.5 344 L 254.5 348 L 252.5 348 L 251.5 349 L 249.5 349 Q 248.8 350.5 247 350 L 247 346.5 L 248.5 345 Q 250.8 345.3 251 343.5 L 252 340.5 L 255 336.5 L 255 334.5 Q 256.3 334.2 256 332.5 L 258 330.5 L 258 326.5 L 259 325.5 L 259 322.5 Q 260.5 322 260 319.5 Q 258.3 318.8 259 315.5 L 260 314.5 L 260 310.5 L 259 309.5 L 259 303.5 Q 257.3 302.8 258 299.5 L 260 296.5 L 260 293.5 L 259 292.5 L 259 288.5 L 260 287.5 Q 258.2 286.8 259.5 286 Z " /><path fill="rgb(218,32,32)" stroke="rgb(218,32,32)" stroke-width="1" opacity="0.996078431372549" d="M 247.5 305 Q 250.8 303.9 250 306.5 L 252 309.5 L 252 321.5 L 251 322.5 L 251 324.5 L 250 325.5 L 250 327.5 L 249 328.5 L 249 330.5 Q 247.8 330.8 248 332.5 L 246 334.5 L 245 337.5 L 241 341.5 Q 241.3 343.8 239.5 344 L 238.5 344 L 235.5 347 L 234.5 347 L 231.5 349 L 230 349 L 230 351 L 227.5 351 Q 226.8 352.8 223.5 352 L 222.5 353 L 221.5 353 L 218.5 355 L 216.5 355 L 215.5 356 L 211.5 356 L 210.5 357 L 206.5 357 L 205.5 358 Q 202.3 357.3 201.5 359 L 183.5 359 L 182.5 360 L 181.5 359 L 170.5 359 L 169.5 358 L 161 358 L 161 356 L 166.5 356 Q 167 357.5 169.5 357 Q 170.3 355.3 173.5 356 L 176.5 354 L 181.5 354 L 182.5 355 L 186 355 Q 186.5 352.9 184.5 352 Q 182.5 352.5 182 351.5 L 183.5 350 L 191.5 350 Q 192.8 352.3 194 349.5 L 194 348.5 L 196.5 346 L 198.5 346 L 201 344.5 L 200 343.5 L 200 341 Q 198.3 341.5 197.5 340 Q 194.8 340.8 194 339.5 L 199 335.5 Q 199.2 333.7 198 333.5 L 200.5 331 Q 202.2 331.2 202.5 330 L 206.5 330 L 208 328.5 L 203.5 326 Q 200.8 326.8 200 325.5 L 202.5 324 L 206.5 324 L 207.5 323 L 214.5 323 Q 215 321.5 217.5 322 L 219.5 320 L 223.5 320 L 224.5 319 L 229.5 319 L 232.5 316 L 235.5 315 L 238.5 312 L 241.5 311 L 243 309.5 Q 242.3 307.3 244.5 308 L 247.5 305 Z " /></svg>